<svg xmlns="http://www.w3.org/2000/svg" xmlns:xlink="http://www.w3.org/1999/xlink" width="359" height="318.233" viewBox="0 0 359 318.233">
  <defs>
    <clipPath id="clip-path">
      <rect id="Rectángulo_405612" data-name="Rectángulo 405612" width="304.044" height="304.044" fill="none"/>
    </clipPath>
    <clipPath id="clip-path-2">
      <path id="Trazado_885071" data-name="Trazado 885071" d="M546.784,829.886a7.717,7.717,0,0,0-3.922,2.759,6.665,6.665,0,0,0,8.681-2.171,8.253,8.253,0,0,0-3.333-.757,5.876,5.876,0,0,0-1.426.169" transform="translate(-542.862 -829.717)" fill="none"/>
    </clipPath>
  </defs>
  <g id="Grupo_1107029" data-name="Grupo 1107029" transform="translate(-136 -2477.311)">
    <rect id="Rectángulo_405513" data-name="Rectángulo 405513" width="359" height="318.233" transform="translate(136 2477.311)" fill="#b8e8f0"/>
    <g id="Grupo_1106859" data-name="Grupo 1106859" transform="translate(160.941 2492.439)">
      <g id="Grupo_1106854" data-name="Grupo 1106854" transform="translate(-0.941 -0.94)">
        <g id="Grupo_1106853" data-name="Grupo 1106853" transform="translate(0 0)" clip-path="url(#clip-path)">
          <path id="Trazado_884989" data-name="Trazado 884989" d="M301.9,150.948A150.948,150.948,0,1,1,150.948,0,150.948,150.948,0,0,1,301.9,150.948" transform="translate(1.249 1.248)" fill="#a3e2d9"/>
          <path id="Trazado_884990" data-name="Trazado 884990" d="M73.267,770.624h-.005l-11.593-.166a.364.364,0,0,1-.359-.369l.075-5.236a22.164,22.164,0,0,1-4.594-1.98l-3.755,3.649a.364.364,0,0,1-.514-.007L44.44,758.2a.364.364,0,0,1,.008-.514l3.755-3.649a22.157,22.157,0,0,1-1.847-4.649l-5.236-.075a.363.363,0,0,1-.358-.369l.166-11.593a.369.369,0,0,1,.369-.358l5.236.075a22.17,22.17,0,0,1,1.98-4.594l-3.649-3.755a.364.364,0,0,1,.007-.514l8.315-8.081a.373.373,0,0,1,.259-.1.365.365,0,0,1,.256.11l3.649,3.755A22.174,22.174,0,0,1,62,722.037l.075-5.236a.359.359,0,0,1,.369-.359l11.593.166a.364.364,0,0,1,.359.369l-.075,5.236a22.165,22.165,0,0,1,4.594,1.98l3.755-3.649a.4.4,0,0,1,.259-.1.364.364,0,0,1,.256.11l8.081,8.315a.364.364,0,0,1-.007.514L87.5,733.03a22.173,22.173,0,0,1,1.847,4.649l5.236.075a.363.363,0,0,1,.359.369l-.166,11.594a.359.359,0,0,1-.369.358L89.171,750a22.184,22.184,0,0,1-1.98,4.594l3.649,3.755a.364.364,0,0,1-.007.514l-8.315,8.08a.363.363,0,0,1-.514-.007l-3.649-3.755a22.187,22.187,0,0,1-4.649,1.848l-.075,5.236a.364.364,0,0,1-.364.359m-11.225-.888,10.866.155.074-5.148a.364.364,0,0,1,.273-.347,21.436,21.436,0,0,0,4.993-1.984.364.364,0,0,1,.437.065l3.587,3.692,7.793-7.574L86.478,754.9a.364.364,0,0,1-.052-.438,21.442,21.442,0,0,0,2.126-4.934.369.369,0,0,1,.355-.263l5.148.073.155-10.866-5.148-.073a.364.364,0,0,1-.347-.273,21.443,21.443,0,0,0-1.984-4.993.364.364,0,0,1,.065-.437l3.692-3.587-7.574-7.793-3.692,3.587a.364.364,0,0,1-.438.053,21.433,21.433,0,0,0-4.934-2.126.364.364,0,0,1-.263-.355l.074-5.148-10.866-.155-.073,5.148a.364.364,0,0,1-.273.347,21.44,21.44,0,0,0-4.993,1.984.364.364,0,0,1-.437-.065L53.431,720.9l-7.793,7.574,3.588,3.691a.364.364,0,0,1,.052.438,21.439,21.439,0,0,0-2.126,4.934.356.356,0,0,1-.355.263l-5.148-.074-.155,10.866,5.148.074a.364.364,0,0,1,.347.273,21.435,21.435,0,0,0,1.984,4.993.363.363,0,0,1-.065.436l-3.692,3.588,7.574,7.794,3.692-3.588a.363.363,0,0,1,.438-.052,21.423,21.423,0,0,0,4.934,2.126.364.364,0,0,1,.263.355Zm5.811-13.777a12.426,12.426,0,1,1,8.662-3.51,12.4,12.4,0,0,1-8.662,3.51m0-24.124a11.7,11.7,0,1,0,8.4,3.542,11.664,11.664,0,0,0-8.4-3.542" transform="translate(-32.788 -597.002)" fill="#d3bba3"/>
          <path id="Trazado_884991" data-name="Trazado 884991" d="M384.894,184.188a91.491,91.491,0,1,1-90.963-92.017,91.491,91.491,0,0,1,90.963,92.017" transform="translate(-167.354 -75.716)" fill="#1db4c9"/>
          <path id="Trazado_884992" data-name="Trazado 884992" d="M371.908,273.674l-.544,0a91.855,91.855,0,0,1,.514-183.709l.544,0a91.855,91.855,0,0,1,91.325,92.383l-.364,0,.364,0a91.855,91.855,0,0,1-91.839,91.326m-.023-182.983a91.123,91.123,0,1,0,.533,0h-.533" transform="translate(-232.591 -73.874)" fill="#fff"/>
          <path id="Trazado_884993" data-name="Trazado 884993" d="M471.02,313.755c-25.409,0-50.384-4.278-72.225-12.372a.364.364,0,1,1,.253-.682c21.761,8.064,46.649,12.326,71.973,12.326,25.129,0,49.851-4.2,71.492-12.149a.364.364,0,1,1,.251.683c-21.72,7.977-46.529,12.194-71.743,12.194" transform="translate(-331.558 -249.827)" fill="#fff"/>
          <path id="Trazado_884994" data-name="Trazado 884994" d="M393.845,917.389a.364.364,0,0,1-.128-.7c22.05-8.3,47.315-12.685,73.065-12.685,25.61,0,50.757,4.342,72.722,12.557a.364.364,0,1,1-.255.681c-21.884-8.184-46.943-12.51-72.467-12.51-25.663,0-50.839,4.37-72.809,12.639a.367.367,0,0,1-.128.023" transform="translate(-327.319 -753.617)" fill="#fff"/>
          <path id="Trazado_884995" data-name="Trazado 884995" d="M594.558,273.675c-12.831,0-24.874-9.586-33.911-26.993-9-17.331-13.954-40.366-13.954-64.862s4.955-47.531,13.954-64.862c9.037-17.407,21.08-26.993,33.911-26.993s24.873,9.586,33.911,26.993c9,17.331,13.954,40.366,13.954,64.862s-4.955,47.53-13.954,64.862c-9.037,17.407-21.08,26.993-33.911,26.993m0-182.982c-25.992,0-47.137,40.88-47.137,91.128s21.146,91.128,47.137,91.128,47.137-40.88,47.137-91.128-21.146-91.128-47.137-91.128" transform="translate(-455.256 -73.875)" fill="#fff"/>
          <path id="Trazado_884996" data-name="Trazado 884996" d="M834.992,274.54a.364.364,0,0,1-.364-.364V91.51a.364.364,0,0,1,.728,0V274.176a.364.364,0,0,1-.364.364" transform="translate(-695.69 -74.861)" fill="#fff"/>
          <path id="Trazado_884997" data-name="Trazado 884997" d="M463.129,639.016h0l-183.057-1.427a.364.364,0,0,1,0-.728h0l183.057,1.427a.364.364,0,0,1,0,.728" transform="translate(-232.315 -530.549)" fill="#fff"/>
          <path id="Trazado_884998" data-name="Trazado 884998" d="M700.09,643.95H483.6a.364.364,0,0,1-.364-.364V479.5a.364.364,0,0,1,.364-.364h46.347a.364.364,0,1,1,0,.727H483.964V643.223H699.727V479.859H599.234a.364.364,0,1,1,0-.727H700.09a.364.364,0,0,1,.364.364V643.586a.364.364,0,0,1-.364.364" transform="translate(-402.267 -398.841)" fill="#363e44"/>
          <rect id="Rectángulo_405600" data-name="Rectángulo 405600" width="202.906" height="137.348" transform="translate(88.125 87.447)" fill="#fff"/>
          <path id="Trazado_884999" data-name="Trazado 884999" d="M1125.037,1390.019a4.075,4.075,0,1,1-4.075-4.075,4.075,4.075,0,0,1,4.075,4.075" transform="translate(-931.384 -1156.055)" fill="#fff"/>
          <path id="Trazado_885000" data-name="Trazado 885000" d="M1016.587,1495.718h-6.409a8.705,8.705,0,0,1-8.705,8.705H986.125a8.705,8.705,0,0,1-8.705-8.705H971.01l-6.409,34.061v2.849H1023v-2.849Z" transform="translate(-804.221 -1247.72)" fill="#daf5ee"/>
          <path id="Trazado_885001" data-name="Trazado 885001" d="M1021.155,1739.558h-58.4a.364.364,0,1,1,0-.727h58.4a.364.364,0,1,1,0,.727" transform="translate(-802.379 -1450.726)" fill="#e6d0be"/>
          <path id="Trazado_885002" data-name="Trazado 885002" d="M686.433,693.956H675.6a.364.364,0,1,1,0-.727h10.6l7.391-5.432h33.243l7.761-6.71h34.367L781.6,670.153a.364.364,0,1,1,.476.55l-12.852,11.112H734.859l-7.76,6.709H693.823Z" transform="translate(-562.59 -558.275)" fill="#d87355"/>
          <path id="Trazado_885003" data-name="Trazado 885003" d="M635.008,774.362H604.591a.364.364,0,0,1,0-.728h30.146l17.634-15.246h6.947l5.967-5.159h26.722l8.773,7.585h12.111a.364.364,0,1,1,0,.728H700.509l-8.772-7.585H665.556l-5.967,5.159h-6.946Z" transform="translate(-503.298 -627.72)" fill="#efbc73"/>
          <path id="Trazado_885004" data-name="Trazado 885004" d="M1181.406,794.807a1.479,1.479,0,1,1,1.464,1.265,1.375,1.375,0,0,1-1.464-1.265" transform="translate(-985.26 -661.382)" fill="#efbc73"/>
          <path id="Trazado_885005" data-name="Trazado 885005" d="M1125.945,748.254a1.479,1.479,0,1,1,1.464,1.265,1.376,1.376,0,0,1-1.464-1.265" transform="translate(-938.948 -622.508)" fill="#efbc73"/>
          <path id="Trazado_885006" data-name="Trazado 885006" d="M965.65,748.254a1.479,1.479,0,1,1,1.464,1.265,1.376,1.376,0,0,1-1.464-1.265" transform="translate(-805.097 -622.508)" fill="#efbc73"/>
          <path id="Trazado_885007" data-name="Trazado 885007" d="M932.168,779.862a1.479,1.479,0,1,1,1.464,1.266,1.376,1.376,0,0,1-1.464-1.266" transform="translate(-777.139 -648.902)" fill="#efbc73"/>
          <path id="Trazado_885008" data-name="Trazado 885008" d="M889.232,780.4a1.479,1.479,0,1,1,1.464,1.266,1.376,1.376,0,0,1-1.464-1.266" transform="translate(-741.286 -649.354)" fill="#efbc73"/>
          <path id="Trazado_885009" data-name="Trazado 885009" d="M781.857,871.549a1.479,1.479,0,1,1,1.464,1.266,1.376,1.376,0,0,1-1.464-1.266" transform="translate(-651.624 -725.463)" fill="#efbc73"/>
          <path id="Trazado_885010" data-name="Trazado 885010" d="M794.316,656.79l-.476-.55L809.265,642.9h45.8l6.818-5.9.476.55-7.023,6.072h-45.8Z" transform="translate(-661.631 -530.672)" fill="#d3bba3"/>
          <path id="Trazado_885011" data-name="Trazado 885011" d="M623.432,765.769H605.317v-.727h17.844l13.257-11.462.476.55Z" transform="translate(-504.208 -628.013)" fill="#d3bba3"/>
          <path id="Trazado_885012" data-name="Trazado 885012" d="M703.513,818.405a1.479,1.479,0,1,1,1.464,1.265,1.375,1.375,0,0,1-1.464-1.265" transform="translate(-586.205 -681.088)" fill="#d3bba3"/>
          <path id="Trazado_885013" data-name="Trazado 885013" d="M1157.444,669.035a1.479,1.479,0,1,1,1.464,1.265,1.376,1.376,0,0,1-1.464-1.265" transform="translate(-965.251 -556.358)" fill="#d3bba3"/>
          <rect id="Rectángulo_405601" data-name="Rectángulo 405601" width="86.136" height="61.179" transform="translate(177.651 154.865)" fill="#dee4f0"/>
          <rect id="Rectángulo_405602" data-name="Rectángulo 405602" width="86.136" height="5.429" transform="translate(177.651 154.865)" fill="#727997"/>
          <path id="Trazado_885014" data-name="Trazado 885014" d="M1153.589,990.88h-86.136a.364.364,0,0,1-.364-.364V929.337a.364.364,0,0,1,.364-.364h86.136a.364.364,0,0,1,.364.364v61.179a.364.364,0,0,1-.364.364m-85.773-.728h85.409V929.7h-85.409Z" transform="translate(-889.802 -774.471)" fill="#e6d0be"/>
          <path id="Trazado_885015" data-name="Trazado 885015" d="M1086.163,941.613a1.235,1.235,0,1,1-1.235-1.235,1.235,1.235,0,0,1,1.235,1.235" transform="translate(-903.666 -783.995)" fill="#fff"/>
          <path id="Trazado_885016" data-name="Trazado 885016" d="M1110.348,941.613a1.235,1.235,0,1,1-1.235-1.235,1.235,1.235,0,0,1,1.235,1.235" transform="translate(-923.862 -783.995)" fill="#fff"/>
          <path id="Trazado_885017" data-name="Trazado 885017" d="M1134.533,941.613a1.235,1.235,0,1,1-1.235-1.235,1.235,1.235,0,0,1,1.235,1.235" transform="translate(-944.057 -783.995)" fill="#fff"/>
          <path id="Trazado_885018" data-name="Trazado 885018" d="M1172.572,1228.318h-77.656a.364.364,0,0,1,0-.728h77.656a.364.364,0,0,1,0,.728" transform="translate(-912.735 -1023.825)" fill="#e6d0be"/>
          <path id="Trazado_885019" data-name="Trazado 885019" d="M1172.572,1178.168h-77.656a.364.364,0,0,1,0-.727h77.656a.364.364,0,0,1,0,.727" transform="translate(-912.735 -981.949)" fill="#e6d0be"/>
          <path id="Trazado_885020" data-name="Trazado 885020" d="M1172.572,1128.02h-77.656a.364.364,0,0,1,0-.728h77.656a.364.364,0,0,1,0,.728" transform="translate(-912.735 -940.073)" fill="#e6d0be"/>
          <path id="Trazado_885021" data-name="Trazado 885021" d="M1172.572,1077.872h-77.656a.364.364,0,0,1,0-.727h77.656a.364.364,0,0,1,0,.727" transform="translate(-912.735 -898.198)" fill="#e6d0be"/>
          <path id="Trazado_885022" data-name="Trazado 885022" d="M1172.572,1027.723h-77.656a.364.364,0,0,1,0-.728h77.656a.364.364,0,0,1,0,.728" transform="translate(-912.735 -856.322)" fill="#e6d0be"/>
          <path id="Trazado_885023" data-name="Trazado 885023" d="M1487.185,1027.212a.364.364,0,0,1-.364-.364V977.21a.364.364,0,1,1,.727,0v49.638a.364.364,0,0,1-.364.364" transform="translate(-1240.29 -814.447)" fill="#e6d0be"/>
          <path id="Trazado_885024" data-name="Trazado 885024" d="M1408.731,1027.212a.364.364,0,0,1-.364-.364V977.21a.364.364,0,1,1,.727,0v49.638a.364.364,0,0,1-.364.364" transform="translate(-1174.779 -814.447)" fill="#e6d0be"/>
          <path id="Trazado_885025" data-name="Trazado 885025" d="M1330.277,1027.212a.364.364,0,0,1-.364-.364V977.21a.364.364,0,1,1,.728,0v49.638a.364.364,0,0,1-.364.364" transform="translate(-1109.267 -814.447)" fill="#e6d0be"/>
          <path id="Trazado_885026" data-name="Trazado 885026" d="M1251.825,1027.212a.364.364,0,0,1-.364-.364V977.21a.364.364,0,1,1,.727,0v49.638a.364.364,0,0,1-.364.364" transform="translate(-1043.758 -814.447)" fill="#e6d0be"/>
          <path id="Trazado_885027" data-name="Trazado 885027" d="M1173.371,1027.212a.364.364,0,0,1-.364-.364V977.21a.364.364,0,1,1,.727,0v49.638a.364.364,0,0,1-.364.364" transform="translate(-978.247 -814.447)" fill="#e6d0be"/>
          <path id="Trazado_885028" data-name="Trazado 885028" d="M1163.772,882.607l-21.213,2.17,4.695,5.146-23.675,20.035-8.482-10.484-29.312,29.984,26.495-18.191,8.406,10.978,34.352-23.792,4.636,5.081Z" transform="translate(-905.412 -735.755)" fill="#534edd"/>
          <rect id="Rectángulo_405603" data-name="Rectángulo 405603" width="28.902" height="24.751" transform="translate(102.698 173.247)" fill="#d3bba3"/>
          <rect id="Rectángulo_405604" data-name="Rectángulo 405604" width="28.902" height="24.751" transform="translate(143.621 143.605)" fill="#fff"/>
          <path id="Trazado_885029" data-name="Trazado 885029" d="M890.441,886.2h-29.63V860.717h29.63Zm-28.9-.727h28.175V861.444H861.538Z" transform="translate(-717.553 -717.475)" fill="#8b865c"/>
          <rect id="Rectángulo_405605" data-name="Rectángulo 405605" width="25.865" height="0.728" transform="translate(134.858 172.826)" fill="#d3bba3"/>
          <rect id="Rectángulo_405606" data-name="Rectángulo 405606" width="20.372" height="0.728" transform="translate(134.858 178.127)" fill="#d3bba3"/>
          <rect id="Rectángulo_405607" data-name="Rectángulo 405607" width="23.805" height="0.728" transform="translate(134.858 182.929)" fill="#d3bba3"/>
          <rect id="Rectángulo_405608" data-name="Rectángulo 405608" width="16.376" height="0.728" transform="translate(134.858 187.98)" fill="#d3bba3"/>
          <path id="Trazado_885030" data-name="Trazado 885030" d="M904.433,892.771a5.469,5.469,0,0,1,1.4-.477l-.18-2.573a8.039,8.039,0,0,0-6.267,5.043l2.474.728a5.458,5.458,0,0,1,2.574-2.721" transform="translate(-749.764 -741.694)" fill="#efbc73"/>
          <path id="Trazado_885031" data-name="Trazado 885031" d="M898.943,931.578a5.451,5.451,0,0,1-.24-2.719l-2.474-.729a8.009,8.009,0,0,0,.406,4.6Z" transform="translate(-746.99 -773.767)" fill="#efbc73"/>
          <path id="Trazado_885032" data-name="Trazado 885032" d="M917.54,919.844,915.232,921a5.482,5.482,0,0,1-9.732,4.867l-2.307,1.154a8.049,8.049,0,0,0,14.347-7.175" transform="translate(-752.944 -766.848)" fill="#d87355"/>
          <path id="Trazado_885033" data-name="Trazado 885033" d="M945.71,891.732a5.492,5.492,0,0,1,4.271,2.436l2.307-1.154a8.063,8.063,0,0,0-6.759-3.856Z" transform="translate(-788.296 -741.224)" fill="#8b865c"/>
          <rect id="Rectángulo_405609" data-name="Rectángulo 405609" width="57.833" height="8.272" transform="translate(223.486 107.165)" fill="#f2e6dc"/>
          <rect id="Rectángulo_405610" data-name="Rectángulo 405610" width="57.833" height="8.272" transform="translate(223.971 118.513)" fill="#f2e6dc"/>
          <rect id="Rectángulo_405611" data-name="Rectángulo 405611" width="57.833" height="8.272" transform="translate(223.971 129.86)" fill="#f2e6dc"/>
          <path id="Trazado_885034" data-name="Trazado 885034" d="M989.82,343.833a28.526,28.526,0,0,0-28.52-28.078c-.456,0-.908.013-1.359.034v28.044Z" transform="translate(-800.331 -262.416)" fill="#534edd"/>
          <path id="Trazado_885035" data-name="Trazado 885035" d="M857.4,414.8V397.366a17.731,17.731,0,1,0,18.576,17.711c0-.094-.005-.187-.007-.281Z" transform="translate(-700.603 -330.564)" fill="#a9b9f7"/>
          <path id="Trazado_885036" data-name="Trazado 885036" d="M1394.338,1439.857H1327.2a.363.363,0,0,1-.364-.364v-17.276a.364.364,0,0,1,.364-.364h67.138a.364.364,0,0,1,.363.364v17.276a.363.363,0,0,1-.363.364m-66.775-.728h66.411v-16.549h-66.411Z" transform="translate(-1106.698 -1186.041)" fill="#d3bba3"/>
          <path id="Trazado_885037" data-name="Trazado 885037" d="M1402.881,1364.088c-2.863-.868-3.2-5.1-5.59-5.039-5.914.15-8.6,18.607-13.084,18.364-3.7-.2-4.308-12.912-8.6-13.324-4.576-.44-7.8,13.664-12.745,13.324-4.34-.3-4.167-11.332-11.856-15.025a11.856,11.856,0,0,0-4-1.09v22.18h61.21V1362.6c-2.31,1.587-4.029,1.889-5.336,1.493" transform="translate(-1123.541 -1133.597)" fill="#daf5ee"/>
          <path id="Trazado_885038" data-name="Trazado 885038" d="M643.059,596.533a9.576,9.576,0,0,1-8.465-14.054l8.28-15.651,8.566,15.5a9.576,9.576,0,0,1-8.381,14.21" transform="translate(-527.717 -472.069)" fill="#1db4c9"/>
          <path id="Trazado_885039" data-name="Trazado 885039" d="M653.384,595.057a9.94,9.94,0,0,1-8.786-14.588l8.28-15.651a.363.363,0,0,1,.318-.193.389.389,0,0,1,.322.187l8.566,15.5a9.94,9.94,0,0,1-8.7,14.749m-.178-29.3-7.965,15.056a9.213,9.213,0,1,0,16.206-.149Z" transform="translate(-536.036 -470.229)" fill="#363e44"/>
          <path id="Trazado_885040" data-name="Trazado 885040" d="M1486.071,588.78a10.508,10.508,0,0,1-10.508-10.508v-8.354h21.016v8.354a10.508,10.508,0,0,1-10.508,10.508" transform="translate(-1230.889 -474.65)" fill="#363e44"/>
          <path id="Trazado_885041" data-name="Trazado 885041" d="M1423.771,176.117a28.434,28.434,0,1,0-42.917,24.467l.509,8.9a14,14,0,0,0,27.949,0l.509-8.9a28.414,28.414,0,0,0,13.949-24.467" transform="translate(-1140.156 -122.071)" fill="#efbc73"/>
          <path id="Trazado_885042" data-name="Trazado 885042" d="M1483.122,605.165a21.149,21.149,0,0,1-10.75-2.987.364.364,0,0,1,.406-.6c.1.068,10.2,6.688,20.992-.441a.364.364,0,0,1,.4.607,19.746,19.746,0,0,1-11.05,3.425" transform="translate(-1228.091 -500.666)" fill="#f2e6dc"/>
          <path id="Trazado_885043" data-name="Trazado 885043" d="M1483.122,631.823a21.147,21.147,0,0,1-10.75-2.987.364.364,0,0,1,.406-.6c.1.068,10.2,6.688,20.992-.442a.364.364,0,0,1,.4.607,19.747,19.747,0,0,1-11.05,3.424" transform="translate(-1228.091 -522.926)" fill="#f2e6dc"/>
          <path id="Trazado_885044" data-name="Trazado 885044" d="M1492.069,242.692,1500.7,220.8h12.52l-11.131,17.271h11.131l-21.155,21.889,6.814-17.271Z" transform="translate(-1244.672 -183.128)" fill="#fff"/>
          <path id="Trazado_885045" data-name="Trazado 885045" d="M641.7,1049.082s8.844,24.205,27.162,24.205c13.126,0,19.8-8.813,21.2-21.43,1.524-13.713-19.366-35.755-44.835-56.326,0,0-8.894,33.54-3.531,53.551" transform="translate(-533.157 -830.049)" fill="#efbc73"/>
          <path id="Trazado_885046" data-name="Trazado 885046" d="M47.372,1019.191s-12.795,32.653-31.562,20.3c-33.532-22.07,1.856-55.165,27.454-68.151,33.312-16.9,57.412-7.782,69.324-4.269l-2.133,70.421a12.264,12.264,0,0,1-12.282,11.888h-43.6a12.266,12.266,0,0,1-11.714-15.97Z" transform="translate(-0.509 -801.59)" fill="#efbc73"/>
          <path id="Trazado_885047" data-name="Trazado 885047" d="M243.1,1136.876a.363.363,0,0,1-.352-.455l2.193-8.448a.364.364,0,1,1,.7.183l-2.193,8.448a.364.364,0,0,1-.352.273" transform="translate(-201.446 -940.414)" fill="#363e44"/>
          <path id="Trazado_885048" data-name="Trazado 885048" d="M658.3,1328.683h-.011a.364.364,0,0,1-.352-.374l.3-10.021a.364.364,0,0,1,.727.022l-.3,10.021a.364.364,0,0,1-.363.353" transform="translate(-548.15 -1099.265)" fill="#363e44"/>
          <path id="Trazado_885049" data-name="Trazado 885049" d="M74.413,1131.39s22.894-9.579,35.154-14.34c21.243-8.25,33.476-5.968,33.49-2.913.016,3.314-6.356,1.424-9.394,2.388a3.585,3.585,0,0,1,1.857,2.88,3.465,3.465,0,0,1-1.811,3.318,3.668,3.668,0,0,1,.854,6.52,3.834,3.834,0,0,1,2.2,2.588,3.6,3.6,0,0,1-2.033,3.994c-2.767.926-11.038,3.508-14.92,5.293-7.641,3.512-33.22,19.9-45.51,21.839-9.213.367-13.5-12.494-9.653-22.637,2.419-6.383,9.771-8.929,9.771-8.929" transform="translate(-51.553 -926.762)" fill="#84524d"/>
          <path id="Trazado_885050" data-name="Trazado 885050" d="M471.447,1241.454a.365.365,0,0,1-.359-.3l-.427-2.6a.364.364,0,0,1,.718-.118l.427,2.6a.365.365,0,0,1-.359.423" transform="translate(-391.763 -1032.627)" fill="#363e44"/>
          <path id="Trazado_885051" data-name="Trazado 885051" d="M464.722,1201.833a.364.364,0,0,1-.36-.315l-.4-2.95a.364.364,0,0,1,.721-.1l.4,2.95a.364.364,0,0,1-.312.409.346.346,0,0,1-.049,0" transform="translate(-386.173 -999.247)" fill="#363e44"/>
          <path id="Trazado_885052" data-name="Trazado 885052" d="M459.82,1162.732a.364.364,0,0,1-.359-.3c-.08-.485-.149-.923-.218-1.361s-.138-.874-.218-1.357a.364.364,0,1,1,.718-.119c.08.485.149.924.219,1.362s.138.874.218,1.356a.364.364,0,0,1-.3.418.4.4,0,0,1-.06,0" transform="translate(-382.046 -966.789)" fill="#363e44"/>
          <path id="Trazado_885053" data-name="Trazado 885053" d="M452.175,1130.965a.364.364,0,0,1-.354-.28l-.6-2.536a.364.364,0,1,1,.708-.167l.6,2.537a.364.364,0,0,1-.27.437.368.368,0,0,1-.084.01" transform="translate(-375.527 -940.414)" fill="#363e44"/>
          <path id="Trazado_885054" data-name="Trazado 885054" d="M680.806,1153.351l10.658,26.922a13.955,13.955,0,1,0,24.907-12.373l-14.8-24.4Z" transform="translate(-567.244 -953.604)" fill="#84524d"/>
          <path id="Trazado_885055" data-name="Trazado 885055" d="M529.128,1060.8a.364.364,0,0,1-.343-.486l14.557-40.871a.363.363,0,0,1,.343-.242h0l31.913.279a.364.364,0,0,1,.361.367.369.369,0,0,1-.367.361l-31.654-.277-14.47,40.627a.364.364,0,0,1-.343.242" transform="translate(-440.285 -849.817)" fill="#f7f1eb"/>
          <path id="Trazado_885056" data-name="Trazado 885056" d="M577.421,1078.8H545.508l14.557-40.738h31.913Z" transform="translate(-454.266 -865.564)" fill="#363e44"/>
          <path id="Trazado_885057" data-name="Trazado 885057" d="M723.479,1190.392c2.815,1.6,3.155,3.477,2.263,5.044s-2.678,2.231-5.493.629-5.592-4.864-4.7-6.431,5.114-.844,7.929.757" transform="translate(-596.114 -991.403)" fill="#84524d"/>
          <path id="Trazado_885058" data-name="Trazado 885058" d="M731.914,1154.111c3.262,1.857,3.657,4.031,2.624,5.846s-3.1,2.586-6.366.73-6.481-5.638-5.447-7.453,5.928-.979,9.19.877" transform="translate(-602.083 -960.891)" fill="#84524d"/>
          <path id="Trazado_885059" data-name="Trazado 885059" d="M771.177,1106.59c2.814,1.6,4.6.937,5.493-.63s.551-3.442-2.263-5.044-7.037-2.324-7.929-.757,1.885,4.829,4.7,6.431" transform="translate(-638.64 -916.688)" fill="#84524d"/>
          <path id="Trazado_885060" data-name="Trazado 885060" d="M744.826,1131.426c3.262,1.857,5.333,1.086,6.366-.73s.639-3.99-2.623-5.846-8.157-2.693-9.19-.877,2.185,5.6,5.447,7.453" transform="translate(-615.99 -936.457)" fill="#84524d"/>
          <path id="Trazado_885061" data-name="Trazado 885061" d="M758.951,1179.715q-.178,0-.361-.016a.364.364,0,0,1,.065-.725,2.7,2.7,0,0,0,2.5-4.147.364.364,0,0,1,.295-.565,3.206,3.206,0,0,0,2.819-4.348.364.364,0,0,1,.288-.505,2.941,2.941,0,0,0,2.248-1.581.364.364,0,0,1,.632.36,4.005,4.005,0,0,0-2.747,4.827,3.672,3.672,0,0,1-2.641,1.922,3.2,3.2,0,0,1-.187,3.045,3.237,3.237,0,0,1-2.913,1.735" transform="translate(-631.92 -973.768)" fill="#363e44"/>
          <path id="Trazado_885062" data-name="Trazado 885062" d="M69.1,1213.679c.652-.3-11.114,24.074,5.838,32.554,0,0-5.784,4.139-12.745,2.175s-14.223-25.157,6.908-34.729" transform="translate(-44.774 -1012.206)" fill="#f2e6dc"/>
          <path id="Trazado_885063" data-name="Trazado 885063" d="M730.029,1284.314s22.58,8.7,27.153-15.157l3.914,9.316s3.079,11.263-7.827,16.263-19.684-2.243-23.239-10.421" transform="translate(-608.347 -1058.534)" fill="#f2e6dc"/>
          <path id="Trazado_885064" data-name="Trazado 885064" d="M424.816,733.97A15.411,15.411,0,1,1,409.4,718.559a15.411,15.411,0,0,1,15.411,15.411" transform="translate(-327.747 -598.769)" fill="#363e44"/>
          <path id="Trazado_885065" data-name="Trazado 885065" d="M455.1,845.044c-1.95-1.077-5.291-3.955-6.369-2l-12.643,20.219c-1.077,1.95,5.39,1.271,7.34,2.349a4.034,4.034,0,0,0,5.482-1.58l7.77-13.5a4.034,4.034,0,0,0-1.58-5.482" transform="translate(-362.794 -702.162)" fill="#84524d"/>
          <path id="Trazado_885066" data-name="Trazado 885066" d="M432.726,961.8c1.747,6.4-3.282,16.082-3.282,16.082s-18.522-8.989-18.522-16.082c0-1.813,4.881-3.282,10.9-3.282s10.425,1.533,10.9,3.282" transform="translate(-341.883 -799.143)" fill="#84524d"/>
          <path id="Trazado_885067" data-name="Trazado 885067" d="M502.74,797.19c-1.749,3.274-12,1.866-12,1.866l-8.942-6.973a9.454,9.454,0,1,1,16.922-8.437s5.8,10.21,4.023,13.544" transform="translate(-400.233 -648.745)" fill="#84524d"/>
          <path id="Trazado_885068" data-name="Trazado 885068" d="M590.242,826.583s3.613,1.3,3.814,2.023c.24.859-2.165,2.655-2.165,2.655s-1.582-4.7-1.649-4.677" transform="translate(-491.62 -688.973)" fill="#84524d"/>
          <path id="Trazado_885069" data-name="Trazado 885069" d="M542.862,835.689a8.213,8.213,0,0,1,2.744-2.319c.363-.181,1.127,3.068.7,3.075a8.229,8.229,0,0,1-3.445-.756" transform="translate(-452.057 -694.633)" fill="#fff"/>
        </g>
      </g>
      <g id="Grupo_1106856" data-name="Grupo 1106856" transform="translate(89.864 137.187)">
        <g id="Grupo_1106855" data-name="Grupo 1106855" clip-path="url(#clip-path-2)">
          <path id="Trazado_885070" data-name="Trazado 885070" d="M558.859,821.564a3.232,3.232,0,1,1,2.039,4.09,3.231,3.231,0,0,1-2.039-4.09" transform="translate(-556.08 -821.066)" fill="#363e44"/>
        </g>
      </g>
      <g id="Grupo_1106858" data-name="Grupo 1106858" transform="translate(-0.941 -0.94)">
        <g id="Grupo_1106857" data-name="Grupo 1106857" transform="translate(0 0)" clip-path="url(#clip-path)">
          <path id="Trazado_885072" data-name="Trazado 885072" d="M580.234,865.048a1.684,1.684,0,0,1-1.589-1.123.364.364,0,0,1,.685-.246.96.96,0,0,0,1.734.167.364.364,0,1,1,.625.373,1.7,1.7,0,0,1-1.455.829" transform="translate(-481.919 -719.748)" fill="#363e44"/>
          <path id="Trazado_885073" data-name="Trazado 885073" d="M422.034,751.963s13.286.586,21.687-12.7-14.653-12.5-24.227-8.01c-6.132,2.878,2.54,20.71,2.54,20.71" transform="translate(-347.209 -606.906)" fill="#363e44"/>
          <path id="Trazado_885074" data-name="Trazado 885074" d="M460.706,803.57a4.918,4.918,0,0,1-.738-.049.364.364,0,0,1,.116-.718,5.165,5.165,0,0,0,3.676-.959,5.851,5.851,0,0,0,1.881-4.433c.178-3.03-1.96-4.708-3.521-5.934-.96-.754-1.654-1.3-1.514-1.981.131-.639.971-1.1,3-1.641,7.212-1.93,11.409-10.424,11.451-10.51a.364.364,0,0,1,.655.317c-.175.362-4.381,8.879-11.918,10.9-2.15.575-2.446.95-2.474,1.085-.05.242.672.808,1.251,1.263,1.592,1.25,4,3.139,3.8,6.548a6.527,6.527,0,0,1-2.159,4.963,5.625,5.625,0,0,1-3.5,1.153" transform="translate(-382.583 -647.686)" fill="#40484c"/>
          <path id="Trazado_885075" data-name="Trazado 885075" d="M430.417,643.921s-5.6-26.9-13.971-24.182,7.887,26.828,13.971,24.182" transform="translate(-344.537 -516.091)" fill="#363e44"/>
          <path id="Trazado_885076" data-name="Trazado 885076" d="M355.309,644.236s-12.006-31.671-22.185-26.747,14.906,31.143,22.185,26.747" transform="translate(-274.918 -513.939)" fill="#363e44"/>
          <path id="Trazado_885077" data-name="Trazado 885077" d="M281.323,674.881s-26.986-28.795-35.215-19.2,29.734,27,35.215,19.2" transform="translate(-203.287 -544.628)" fill="#363e44"/>
          <path id="Trazado_885078" data-name="Trazado 885078" d="M282.726,742.282s-24.139-18.765-29.67-10.186,26.126,17,29.67,10.186" transform="translate(-209.52 -608.198)" fill="#363e44"/>
          <path id="Trazado_885079" data-name="Trazado 885079" d="M269.46,754.462c-5.6,0-10.949-1.053-13.29-3.317a3.964,3.964,0,0,1-1.147-4.181,5.151,5.151,0,0,1,2.8-3.262c7.806-3.919,28.164,3.76,29.027,4.089l.283.108-.055.3c-.351,1.891-2.449,3.5-6.069,4.66a39.673,39.673,0,0,1-11.553,1.6m-5.673-11.14a12.844,12.844,0,0,0-5.634,1.03,4.4,4.4,0,0,0-2.43,2.81,3.281,3.281,0,0,0,.952,3.46c3.873,3.745,16.5,3.978,24.117,1.542,3.1-.99,5.03-2.332,5.5-3.806-2.056-.755-14.1-5.037-22.505-5.037" transform="translate(-211.549 -618.836)" fill="#363e44"/>
          <path id="Trazado_885080" data-name="Trazado 885080" d="M360.732,629.313c-1.623,0-3.633-.979-5.9-2.891-6.267-5.281-12.929-16.445-11.771-21.946a3.964,3.964,0,0,1,2.93-3.2,5.151,5.151,0,0,1,4.254.639c7.473,4.523,11.8,25.846,11.984,26.752l.06.3-.282.112a3.422,3.422,0,0,1-1.273.233M347.418,601.8a4.333,4.333,0,0,0-1.224.181,3.282,3.282,0,0,0-2.423,2.648c-1.11,5.271,5.411,16.084,11.528,21.239,2.485,2.094,4.652,3.017,6.149,2.632-.575-2.705-4.86-21.887-11.582-25.956a4.678,4.678,0,0,0-2.448-.744" transform="translate(-285.106 -500.664)" fill="#363e44"/>
          <path id="Trazado_885081" data-name="Trazado 885081" d="M488.438,685.74s-4.287-12.591,1.984-12.145-1.984,12.145-1.984,12.145" transform="translate(-405.417 -561.214)" fill="#363e44"/>
          <path id="Trazado_885082" data-name="Trazado 885082" d="M333.043,800.648s-17.1-3.808-15.175,5.06,15.175-5.06,15.175-5.06" transform="translate(-264.055 -666.637)" fill="#363e44"/>
          <path id="Trazado_885083" data-name="Trazado 885083" d="M249.042,1444.771l10.206,22.361h39.167L273.13,1396.4l-51.566.058c-12.935,19.935-17.25,44.127-16.007,70.679H248.34Z" transform="translate(-170.227 -1164.782)" fill="#0a6164"/>
          <path id="Trazado_885084" data-name="Trazado 885084" d="M468.345,1629.257h-.005a.364.364,0,0,1-.359-.369l.128-8.839a.364.364,0,0,1,.207-.323l5.893-2.818a.364.364,0,0,1,.314.656l-5.689,2.721-.125,8.613a.364.364,0,0,1-.364.358" transform="translate(-389.529 -1348.888)" fill="#363e44"/>
          <rect id="Rectángulo_405613" data-name="Rectángulo 405613" width="52.013" height="8.73" transform="translate(51.024 224.148)" fill="#0a6164"/>
          <path id="Trazado_885085" data-name="Trazado 885085" d="M352.093,1395.97H319.721a.364.364,0,1,1,0-.728h32.372a.364.364,0,1,1,0,.728" transform="translate(-265.424 -1163.82)" fill="#363e44"/>
        </g>
      </g>
    </g>
  </g>
</svg>
