<svg xmlns="http://www.w3.org/2000/svg" width="107" height="107" viewBox="0 0 107 107">
  <g id="Grupo_1107041" data-name="Grupo 1107041" transform="translate(-1166.711 -4165.999)">
    <g id="Grupo_156312" data-name="Grupo 156312" transform="translate(878.043 -282.438)">
      <path id="Elipse_5845" data-name="Elipse 5845" d="M53.5,0A53.5,53.5,0,1,1,0,53.5,53.5,53.5,0,0,1,53.5,0Z" transform="translate(288.668 4448.437)" fill="#505ea3"/>
    </g>
    <g id="Grupo_1105053" data-name="Grupo 1105053" transform="translate(1187.152 4187)">
      <g id="Energy_Protection" data-name="Energy Protection" transform="translate(-2.441 -0.991)">
        <path id="Trazado_884738" data-name="Trazado 884738" d="M31,48a1,1,0,0,1-.97-1.242L32.719,36H29a1,1,0,0,1-.919-1.394l6-14A1,1,0,0,1,35,20h6a1,1,0,0,1,.935,1.355L39.026,29H43a1,1,0,0,1,.817,1.577l-12,17A1,1,0,0,1,31,48Zm-.483-14H34a1,1,0,0,1,.97,1.243l-1.7,6.811L41.07,31H37.576a1,1,0,0,1-.935-1.355L39.55,22H35.659Z" fill="#fff"/>
        <path id="Trazado_884739" data-name="Trazado 884739" d="M36,70a1.014,1.014,0,0,1-.359-.066A41.81,41.81,0,0,1,9,31.143V9a1,1,0,0,1,.445-.832C9.823,7.916,18.894,2,36,2S62.177,7.916,62.555,8.168A1,1,0,0,1,63,9V31.143a41.81,41.81,0,0,1-26.641,38.79A1.014,1.014,0,0,1,36,70ZM11,9.564V31.143A39.8,39.8,0,0,0,36,67.927,39.8,39.8,0,0,0,61,31.143V9.564C59.007,8.417,50.389,4,36,4S12.993,8.417,11,9.564Z" fill="#fff"/>
        <path id="Trazado_884740" data-name="Trazado 884740" d="M36,63.485a1,1,0,0,1-.423-.094A35.716,35.716,0,0,1,15,31.143V12.669a1,1,0,0,1,.607-.92A52.45,52.45,0,0,1,36,8a52.4,52.4,0,0,1,20.393,3.753,1,1,0,0,1,.607.92V31.143A35.716,35.716,0,0,1,36.423,63.392,1,1,0,0,1,36,63.485ZM17,13.337V31.143A33.711,33.711,0,0,0,36,61.379,33.711,33.711,0,0,0,55,31.143V13.34A51.158,51.158,0,0,0,36,10a51.19,51.19,0,0,0-19,3.337Z" fill="#fff"/>
      </g>
    </g>
  </g>
</svg>
