<svg xmlns="http://www.w3.org/2000/svg" xmlns:xlink="http://www.w3.org/1999/xlink" width="359" height="318.233" viewBox="0 0 359 318.233">
  <defs>
    <clipPath id="clip-path">
      <rect id="Rectángulo_404717" data-name="Rectángulo 404717" width="281.066" height="294.628" fill="none"/>
    </clipPath>
    <clipPath id="clip-path-3">
      <rect id="Rectángulo_404713" data-name="Rectángulo 404713" width="53.761" height="53.761" fill="none"/>
    </clipPath>
    <clipPath id="clip-path-4">
      <path id="Trazado_883272" data-name="Trazado 883272" d="M245.742,123.574a4.1,4.1,0,0,0-.081.8l4.562-3.61a4.05,4.05,0,0,1,.081-.8l-4.562,3.609" transform="translate(-245.661 -119.965)" fill="none"/>
    </clipPath>
    <clipPath id="clip-path-6">
      <path id="Trazado_883279" data-name="Trazado 883279" d="M252.654,116.249a4.1,4.1,0,0,0-.39.273L247.7,120.13a4.227,4.227,0,0,1,.39-.272,3.987,3.987,0,0,1,2.121-.584l4.562-3.609h-.035a3.981,3.981,0,0,0-2.086.584" transform="translate(-247.702 -115.665)" fill="none"/>
    </clipPath>
  </defs>
  <g id="Grupo_1107030" data-name="Grupo 1107030" transform="translate(-1105 -2476.222)">
    <rect id="Rectángulo_402012" data-name="Rectángulo 402012" width="359" height="318.233" transform="translate(1105 2476.222)" fill="#b8e8f0"/>
    <g id="Grupo_1105119" data-name="Grupo 1105119" transform="translate(1138.934 2478.3)">
      <g id="Grupo_1105118" data-name="Grupo 1105118" clip-path="url(#clip-path)">
        <g id="Grupo_1105109" data-name="Grupo 1105109">
          <g id="Grupo_1105108" data-name="Grupo 1105108" clip-path="url(#clip-path)">
            <path id="Trazado_883256" data-name="Trazado 883256" d="M130.68,126.934a14.58,14.58,0,0,1,14.412,14.572,14.765,14.765,0,0,1-.22,2.507,6.181,6.181,0,0,1,2.56-.532,6.308,6.308,0,0,1,6.23,6.3,6.174,6.174,0,0,1-6.237,6.19l-33.9-.31a8.671,8.671,0,0,1-8.57-8.662,8.485,8.485,0,0,1,11.473-7.971,14.276,14.276,0,0,1,14.254-12.1" transform="translate(-27.414 -33.155)" fill="#a2e1ea"/>
            <path id="Trazado_883257" data-name="Trazado 883257" d="M191.758,288.595a22,22,0,0,0-5.712-9.244.471.471,0,0,0,.274-.389,28.52,28.52,0,0,0-1.079-13.008c-.239-.737-1.407-.422-1.167.322a27.205,27.205,0,0,1,1.1,12.2c-2.053-1.992-4.328-3.824-6.549-5.738a38.992,38.992,0,0,1-8.707-10.643,43.3,43.3,0,0,0-5.468-8.353c-.507-.549-1.039-1.056-1.582-1.543a.485.485,0,0,0,.387-.552,59.846,59.846,0,0,0-4.078-16.929c-.286-.714-1.456-.4-1.166.321a58.785,58.785,0,0,1,4.015,16.437c-11.256-9.187-29.122-7.054-38.237-19.543-.454-.623-1.5-.021-1.045.61a25.294,25.294,0,0,0,8.843,7.476,35.333,35.333,0,0,1-8.334.677c-.778-.03-.777,1.18,0,1.209a36.5,36.5,0,0,0,9.457-.873.528.528,0,0,0,.369-.27c8.318,3.935,18.257,5.047,26.123,10.175,3.494,2.278,5.73,5.4,7.751,8.7a.587.587,0,0,0-.161,0c-4.385.85-8.313,1.233-12.715.115-3.177-.807-6.334-1.7-9.5-2.556a.605.605,0,0,0-.322,1.167c4.05,1.091,8.161,2.518,12.3,3.178,3.565.568,7.05-.059,10.552-.738a.509.509,0,0,0,.38-.271,55.126,55.126,0,0,0,6.243,9.253c5.818,6.372,14.275,10.288,16.856,19.13a.6.6,0,0,0,1.166-.321" transform="translate(-32.031 -60.514)" fill="#8adaf9"/>
            <path id="Trazado_883258" data-name="Trazado 883258" d="M162.7,375.724H129.1A32.665,32.665,0,0,1,96.468,343.1a26.664,26.664,0,0,0-26.633-26.634H21.374v-5.994H69.835A32.664,32.664,0,0,1,102.462,343.1,26.664,26.664,0,0,0,129.1,369.729H162.7A26.664,26.664,0,0,0,189.338,343.1V337.14h5.995V343.1A32.665,32.665,0,0,1,162.7,375.724" transform="translate(-5.583 -81.096)" fill="#9ecac8"/>
            <path id="Trazado_883259" data-name="Trazado 883259" d="M32.778,297.9H15.136v3.738H2.649a2.648,2.648,0,1,0,0,5.3H15.136v5.676H2.649a2.649,2.649,0,1,0,0,5.3H15.136v3.738H32.778c2.575,0,4.683-1.751,4.683-3.89V301.786c0-2.14-2.108-3.89-4.683-3.89" transform="translate(0 -77.812)" fill="#9ecac8"/>
            <path id="Trazado_883260" data-name="Trazado 883260" d="M276.076,347.79l0,3.592c0,2.751-16.135,5.946-36.029,5.764s-36.019-3.672-36.018-6.422v-3.593c0,2.751,16.124,5.125,36.018,5.307s36.027-1.9,36.028-4.648" transform="translate(-53.293 -90.672)" fill="#514736"/>
            <path id="Trazado_883261" data-name="Trazado 883261" d="M240.054,340.835c19.894.182,36.024,2.556,36.023,5.308s-16.134,4.829-36.028,4.648-36.02-2.555-36.018-5.307,16.129-4.83,36.024-4.648" transform="translate(-53.294 -89.025)" fill="#685945"/>
            <path id="Trazado_883262" data-name="Trazado 883262" d="M278.532,60.574l-9.123,7.012,5.186,10.273L263.325,80.2l.215,11.507-11.171-2.762-4.8,10.46-8.86-7.351-8.86,7.351-4.8-10.46-11.172,2.761.216-11.507-11.269-2.343,5.186-10.273-9.124-7.012,9.124-7.011-5.186-10.274,11.27-2.343-.215-11.507L225.048,32.2l4.8-10.46,8.86,7.351,8.86-7.351,4.8,10.461,11.172-2.762-.215,11.507,11.269,2.343-5.186,10.273Z" transform="translate(-51.949 -5.679)" fill="#fbf35d"/>
            <g id="Grupo_1105107" data-name="Grupo 1105107" transform="translate(159.878 28.015)" opacity="0.57">
              <g id="Grupo_1105106" data-name="Grupo 1105106">
                <g id="Grupo_1105105" data-name="Grupo 1105105" clip-path="url(#clip-path-3)">
                  <path id="Trazado_883263" data-name="Trazado 883263" d="M270.164,64.8a26.881,26.881,0,1,1-26.88-26.88,26.88,26.88,0,0,1,26.88,26.88" transform="translate(-216.404 -37.92)" fill="#ffa300"/>
                </g>
              </g>
            </g>
            <path id="Trazado_883264" data-name="Trazado 883264" d="M281.4,331.223v4.213c0,3.107-19.822,7.138-44.266,6.916s-44.255-4.617-44.254-7.725l0-4.213c0,3.107,19.81,5.8,44.255,6.026s44.263-2.111,44.264-5.217" transform="translate(-50.381 -86.306)" fill="#594a32"/>
            <path id="Trazado_883265" data-name="Trazado 883265" d="M237.143,323.34c24.444.224,44.259,2.925,44.258,6.032s-19.82,5.44-44.264,5.218-44.256-2.92-44.255-6.027,19.815-5.446,44.261-5.223" transform="translate(-50.382 -84.454)" fill="#7a6b4f"/>
            <path id="Trazado_883266" data-name="Trazado 883266" d="M293.125,309.447l0,7.93c0,4.377-27.938,8.868-62.4,8.554s-62.393-5.317-62.391-9.694l0-7.93Z" transform="translate(-43.969 -80.531)" fill="#b6d7d6"/>
            <path id="Trazado_883267" data-name="Trazado 883267" d="M230.729,298.3c34.462.315,62.393,4.119,62.391,8.5s-27.937,7.675-62.4,7.36-62.393-4.119-62.391-8.5,27.937-7.675,62.4-7.36" transform="translate(-43.969 -77.911)" fill="#6f716c"/>
            <path id="Trazado_883268" data-name="Trazado 883268" d="M215.308,122.349l12.718,1.848a4.107,4.107,0,0,0-.081.8,4.061,4.061,0,0,0,2.351,3.688l-4.74,11.561-47.718,15.292Z" transform="translate(-46.452 -31.958)" fill="#0490a1"/>
          </g>
        </g>
        <g id="Grupo_1105111" data-name="Grupo 1105111" transform="translate(181.493 88.63)">
          <g id="Grupo_1105110" data-name="Grupo 1105110" clip-path="url(#clip-path-4)">
            <path id="Trazado_883269" data-name="Trazado 883269" d="M245.764,123.574l4.562-3.609c-.007.034-.014.068-.02.1l-4.561,3.61c.005-.035.012-.069.019-.1" transform="translate(-245.683 -119.965)" fill="#1a496e"/>
            <path id="Trazado_883270" data-name="Trazado 883270" d="M245.727,123.714l4.562-3.609a3.937,3.937,0,0,0-.051.412l-4.561,3.61a3.778,3.778,0,0,1,.05-.412" transform="translate(-245.665 -120.002)" fill="#1b4c71"/>
            <path id="Trazado_883271" data-name="Trazado 883271" d="M245.672,124.272l4.562-3.609q-.011.143-.011.288,0,.069,0,.137l-4.562,3.61c0-.046,0-.092,0-.138,0-.1,0-.193.011-.288" transform="translate(-245.661 -120.147)" fill="#1c4e75"/>
          </g>
        </g>
        <g id="Grupo_1105113" data-name="Grupo 1105113">
          <g id="Grupo_1105112" data-name="Grupo 1105112" clip-path="url(#clip-path)">
            <path id="Trazado_883273" data-name="Trazado 883273" d="M247.808,131.1a4.067,4.067,0,0,0,1.368.25,4,4,0,0,0,1.269-.194l.451,1.933,3.48,131.155-10.635-.1,3.61-131.09Z" transform="translate(-63.666 -34.243)" fill="#d3d3d3"/>
          </g>
        </g>
        <g id="Grupo_1105115" data-name="Grupo 1105115" transform="translate(183.001 85.453)">
          <g id="Grupo_1105114" data-name="Grupo 1105114" clip-path="url(#clip-path-6)">
            <path id="Trazado_883274" data-name="Trazado 883274" d="M247.7,120.225l4.562-3.609a3.944,3.944,0,0,1,.389-.272,4.029,4.029,0,0,1,.643-.318l-4.562,3.609a3.963,3.963,0,0,0-.643.317,4.084,4.084,0,0,0-.389.273" transform="translate(-247.702 -115.759)" fill="#858585"/>
            <path id="Trazado_883275" data-name="Trazado 883275" d="M249.1,119.576l4.562-3.609a3.813,3.813,0,0,1,.55-.167l-4.562,3.608a3.911,3.911,0,0,0-.55.168" transform="translate(-248.067 -115.7)" fill="#8a8a8a"/>
            <path id="Trazado_883276" data-name="Trazado 883276" d="M249.844,119.381l4.562-3.609a3.907,3.907,0,0,1,.468-.077l-4.561,3.609a3.894,3.894,0,0,0-.468.077" transform="translate(-248.261 -115.673)" fill="#8f8f8f"/>
            <path id="Trazado_883277" data-name="Trazado 883277" d="M250.478,119.3l4.561-3.609a4.083,4.083,0,0,1,.438-.021l-4.562,3.609a4.073,4.073,0,0,0-.437.021" transform="translate(-248.427 -115.665)" fill="#949494"/>
            <path id="Trazado_883278" data-name="Trazado 883278" d="M251.07,119.274l4.562-3.609h.023l-4.562,3.609Z" transform="translate(-248.582 -115.665)" fill="#999"/>
          </g>
        </g>
        <g id="Grupo_1105117" data-name="Grupo 1105117">
          <g id="Grupo_1105116" data-name="Grupo 1105116" clip-path="url(#clip-path)">
            <path id="Trazado_883280" data-name="Trazado 883280" d="M249.68,120.55a4.059,4.059,0,0,1,4.014,3.964c0,.03,0,.059,0,.089a3.978,3.978,0,0,1-2.708,3.781l-.04.013a3.984,3.984,0,0,1-1.27.194,4.03,4.03,0,0,1-1.367-.25c-.1-.037-.2-.078-.3-.123a4.065,4.065,0,0,1-2.27-4.491,3.969,3.969,0,0,1,3.938-3.177" transform="translate(-64.168 -31.488)" fill="#d3d3d3"/>
            <path id="Trazado_883281" data-name="Trazado 883281" d="M268.115,123.761l37.436,33.877-47.7-16.164-4.98-12.251a3.977,3.977,0,0,0,2.708-3.781Z" transform="translate(-66.05 -32.327)" fill="#0490a1"/>
            <path id="Trazado_883282" data-name="Trazado 883282" d="M248.3,41.47l10.232,49.356-8,10.28a4.035,4.035,0,0,0-2.849-1.212,3.98,3.98,0,0,0-2.121.583l-7.542-9.839Z" transform="translate(-62.172 -10.832)" fill="#0490a1"/>
            <path id="Trazado_883283" data-name="Trazado 883283" d="M283.777,227.5l-1.7,61.5,6.615.06-1.633-61.615a7.937,7.937,0,0,1-3.283.054" transform="translate(-73.68 -59.409)" fill="#d3d3d3"/>
            <path id="Trazado_883284" data-name="Trazado 883284" d="M285.165,215.642c.039.015.079.027.119.04l-.365,1.01Z" transform="translate(-74.422 -56.327)" fill="#d3d3d3"/>
            <path id="Trazado_883285" data-name="Trazado 883285" d="M246.667,240.328l21.679-19.659,5.688,4.236a2.176,2.176,0,0,0,.408,2,2.2,2.2,0,0,0,.9.656l-2.765,5.828Z" transform="translate(-64.43 -57.64)" fill="#0490a1"/>
            <path id="Trazado_883286" data-name="Trazado 883286" d="M284.407,224.76a2.179,2.179,0,0,1,.511-.307,2.231,2.231,0,0,1,2.594.641c.013.016.024.031.037.047a2.171,2.171,0,0,1-.356,3.027,2.207,2.207,0,0,1-.548.324c-.038.016-.078.031-.117.044a2.229,2.229,0,0,1-1.546-.036,2.2,2.2,0,0,1-1.3-2.652,2.17,2.17,0,0,1,.728-1.088" transform="translate(-74.075 -58.582)" fill="#d3d3d3"/>
            <path id="Trazado_883287" data-name="Trazado 883287" d="M289.085,227.123l6.93-.557,19.095,18.81-16.949-6.555-4.767-1.843-3.342-1.293-1.97-5.583-.358-1.013a2.187,2.187,0,0,0,1.361-1.966" transform="translate(-75.155 -59.18)" fill="#0490a1"/>
            <path id="Trazado_883288" data-name="Trazado 883288" d="M287.107,181.466l4.158,27.139-4.646,5.354a2.249,2.249,0,0,0-2.631-.688l-3.956-5.723Z" transform="translate(-73.146 -47.4)" fill="#0490a1"/>
            <path id="Trazado_883289" data-name="Trazado 883289" d="M216.526,213.285l4.562-3.61,2.847,5.018-4.561,3.61Z" transform="translate(-56.558 -54.768)" fill="#b7b7b7"/>
            <path id="Trazado_883290" data-name="Trazado 883290" d="M219.032,219.579l2.533,66.114-9.485-.06,2.837-71.072Z" transform="translate(-55.396 -56.044)" fill="#d3d3d3"/>
            <path id="Trazado_883291" data-name="Trazado 883291" d="M217.174,199.686c.044.016.089.031.134.045l-.412,1.14Z" transform="translate(-56.654 -52.159)" fill="#d3d3d3"/>
            <path id="Trazado_883292" data-name="Trazado 883292" d="M169.216,184.919l32.995-1.681L204.152,191a2.48,2.48,0,0,0-.757,3.25l-6.582,3.116Z" transform="translate(-44.2 -47.863)" fill="#0490a1"/>
            <path id="Trazado_883293" data-name="Trazado 883293" d="M217.539,193.169a2.449,2.449,0,0,1,.666.1,2.517,2.517,0,0,1,1.809,2.413c0,.022,0,.045,0,.067a2.451,2.451,0,0,1-2.476,2.391,2.533,2.533,0,0,1-.71-.109c-.044-.015-.089-.029-.134-.046a2.515,2.515,0,0,1-1.324-1.136,2.481,2.481,0,0,1,.757-3.25,2.447,2.447,0,0,1,1.413-.429" transform="translate(-56.173 -50.457)" fill="#d3d3d3"/>
            <path id="Trazado_883294" data-name="Trazado 883294" d="M219.1,198.738l6.453,4.467,3.24,30.084-10.124-17.843-2.847-5.018-2-3.518,2.271-6.286.411-1.14a2.5,2.5,0,0,0,.71.109,2.444,2.444,0,0,0,1.885-.854" transform="translate(-55.851 -51.911)" fill="#0490a1"/>
            <path id="Trazado_883295" data-name="Trazado 883295" d="M244.779,158.7l-15.767,26.684-7.886,1.357a2.535,2.535,0,0,0-1.807-2.479l.633-7.829Z" transform="translate(-57.287 -41.454)" fill="#0490a1"/>
            <path id="Trazado_883296" data-name="Trazado 883296" d="M183.624,259.213c-1.613-1.236-3.468-2.155-4.954-3.541-3.305-3.082-4.227-7.854-5.64-12.147a30.543,30.543,0,0,0-6.6-11.65,18.615,18.615,0,0,0-11.79-5.94c-4.032-.307-7.992.974-11.976,1.669s-8.445.687-11.638-1.795c-2.527-1.963-3.923-5.236-6.727-6.778-3.95-2.171-9.083.112-11.889,3.639a15.567,15.567,0,0,0-2.621,14.546,13.816,13.816,0,0,0,11.42,9.1c2.932.264,6.19-.414,8.6,1.271,2.3,1.606,2.884,4.772,2.737,7.574s-.818,5.636-.241,8.382a11.3,11.3,0,0,0,7.083,7.851,17.52,17.52,0,0,0,10.835.253c4.005-1.081,8.586-3.1,11.957-.685,3.913,2.806,2.782,9.361,6.193,12.76,3.561,3.548,17.819,4.9,21.386.516,5.244-6.439-.444-20.659-6.138-25.024" transform="translate(-28.469 -56.991)" fill="#02625f"/>
            <path id="Trazado_883297" data-name="Trazado 883297" d="M193.018,291.274h10.851a94.213,94.213,0,0,0-11.248-28.858,67.894,67.894,0,0,0-24.011-24.138,19.147,19.147,0,0,0-7.841-2.864c-2.8-.222-5.831.757-7.439,3.056-2.264,3.24-1.038,7.711.68,11.27,8.3,17.2,30,20.928,39.008,41.534" transform="translate(-39.728 -61.483)" fill="#02b684"/>
            <path id="Trazado_883298" data-name="Trazado 883298" d="M199.621,293.619h1.616a120.727,120.727,0,0,0-14.937-27.73c-6.609-9.1-14.025-17.7-24.882-21.483-.909-.318-1.517,1.059-.6,1.379,11.273,3.931,18.912,13.271,25.569,22.814a118.9,118.9,0,0,1,13.235,25.02" transform="translate(-41.888 -63.828)" fill="#06805c"/>
            <path id="Trazado_883299" data-name="Trazado 883299" d="M354.206,220.433c-3.778-3.02-9.427-.106-12.633,3.517s-6.02,8.257-10.73,9.355c-4.44,1.035-9.155-1.522-13.573-.4-5.319,1.354-7.921,7.29-9.3,12.6s-2.651,11.3-7.193,14.381c-2.431,1.648-5.5,2.2-7.839,3.973-6.564,4.96-5.227,18.037,1.22,23.006h18.2a12.478,12.478,0,0,0,4.335-2.519c3.86-3.716,1.048-10.971,4.3-15.438,2.139-2.933,7.593-4.059,10.776-5.26,3.775-1.423,7.72-3.633,9.016-7.454,1.073-3.17.045-6.706.808-9.964.812-3.472,3.523-6.15,6.263-8.43s5.715-4.469,7.428-7.6,1.709-7.553-1.076-9.779" transform="translate(-75.39 -57.25)" fill="#95d703"/>
            <path id="Trazado_883300" data-name="Trazado 883300" d="M354.114,227.28c-6.247,2.762-11.508,6.9-16.546,11.453-5.8,5.239-11.66,10.52-17.175,16.061a65.623,65.623,0,0,0-18.039,34.182h1.178a65.227,65.227,0,0,1,18.873-34.536c9.645-9.375,19.826-20.647,32.293-26.159.68-.3.092-1.3-.584-1" transform="translate(-78.976 -59.352)" fill="#c7f769"/>
            <path id="Trazado_883301" data-name="Trazado 883301" d="M327.647,246.442l-1.529,13.387c-.085.74,1.074.733,1.158,0q.765-6.693,1.529-13.387c.086-.74-1.073-.734-1.158,0" transform="translate(-85.182 -64.227)" fill="#c7f769"/>
            <path id="Trazado_883302" data-name="Trazado 883302" d="M344.654,265.343c-5.672.2-11.1-1.759-16.76-1.793a.58.58,0,0,0,0,1.158c5.662.033,11.081,2,16.76,1.792.742-.027.746-1.184,0-1.158" transform="translate(-85.501 -68.84)" fill="#c7f769"/>
            <path id="Trazado_883303" data-name="Trazado 883303" d="M299.189,285.907a130.52,130.52,0,0,1,2.8,15.513c.086.731,1.246.74,1.158,0a132.951,132.951,0,0,0-2.838-15.821c-.176-.723-1.292-.417-1.116.308" transform="translate(-78.145 -74.492)" fill="#c7f769"/>
            <path id="Trazado_883304" data-name="Trazado 883304" d="M317.48,298.656l-13.343,4.408c-.7.233-.4,1.351.307,1.117l13.343-4.409c.7-.233.4-1.351-.307-1.116" transform="translate(-79.337 -78.002)" fill="#c7f769"/>
            <path id="Trazado_883305" data-name="Trazado 883305" d="M324.647,250.177a6.374,6.374,0,0,0-5.817-2.16,14.766,14.766,0,0,0-5.969,2.417,52.373,52.373,0,0,0-17.875,19.25,72.99,72.99,0,0,0-8.289,24.847h7.842c5.569-18.389,23.632-21.472,29.883-35.645,1.231-2.79,2.058-6.271.226-8.709" transform="translate(-74.886 -64.771)" fill="#00b4cb"/>
            <path id="Trazado_883306" data-name="Trazado 883306" d="M321.33,254.9c-8.272,3.207-13.762,10.03-18.616,17.225a93.832,93.832,0,0,0-11.574,24.2h1.214a92.624,92.624,0,0,1,10.365-22.111c4.88-7.535,10.523-14.939,19.112-18.27.7-.27.191-1.315-.5-1.047" transform="translate(-76.047 -66.571)" fill="#5bdddd"/>
            <path id="Trazado_883307" data-name="Trazado 883307" d="M184.125,91.125a6.948,6.948,0,0,0-6.6,2.311l-1.156,1.334-1.155-1.334a6.95,6.95,0,0,0-6.606-2.311c-4.967,1.012-4.465,6.7-4.465,6.7a6.3,6.3,0,0,1,12.226-.021,6.3,6.3,0,0,1,12.226.021s.5-5.688-4.465-6.7" transform="translate(-42.87 -23.767)" fill="#cee4e4"/>
            <path id="Trazado_883308" data-name="Trazado 883308" d="M343.129,121.809a10.69,10.69,0,0,0-10.161,3.555l-1.778,2.052-1.778-2.052a10.69,10.69,0,0,0-10.16-3.555c-7.641,1.557-6.869,10.307-6.869,10.307a9.693,9.693,0,0,1,18.806-.033,9.693,9.693,0,0,1,18.807.033s.773-8.75-6.869-10.307" transform="translate(-81.59 -31.763)" fill="#cee4e4"/>
            <path id="Trazado_883309" data-name="Trazado 883309" d="M107.132,196.576a7.459,7.459,0,0,0-7.089,2.479l-1.24,1.432-1.24-1.432a7.458,7.458,0,0,0-7.089-2.479c-5.332,1.086-4.793,7.191-4.793,7.191a6.763,6.763,0,0,1,13.122-.023,6.763,6.763,0,0,1,13.121.023s.539-6.1-4.792-7.191" transform="translate(-22.376 -51.309)" fill="#cee4e4"/>
            <path id="Trazado_883310" data-name="Trazado 883310" d="M320.039.143a7.458,7.458,0,0,0-7.089,2.48l-1.24,1.431-1.24-1.431A7.457,7.457,0,0,0,303.38.143c-5.332,1.086-4.793,7.191-4.793,7.191a6.763,6.763,0,0,1,13.122-.022,6.763,6.763,0,0,1,13.121.022s.539-6.1-4.792-7.191" transform="translate(-77.988 0)" fill="#cee4e4"/>
          </g>
        </g>
      </g>
    </g>
  </g>
</svg>
